<svg width="204" height="135" viewBox="0 0 204 135" fill="none" xmlns="http://www.w3.org/2000/svg">
<path d="M26.6094 24.3008C29.0833 24.3008 31.6549 24.6914 34.3242 25.4727C36.9935 26.2539 39.4349 27.5234 41.6484 29.2812C43.9271 30.974 45.7826 33.2201 47.2148 36.0195C48.6471 38.7539 49.3633 42.1068 49.3633 46.0781C49.3633 49.6589 48.6797 53.1419 47.3125 56.5273C46.0104 59.9128 44.1224 63.0052 41.6484 65.8047C39.2396 68.6042 36.3099 71.013 32.8594 73.0312C29.4089 74.9844 25.5677 76.319 21.3359 77.0352C21.3359 79.7044 21.4336 82.0156 21.6289 83.9688C21.694 85.7917 21.7591 87.3542 21.8242 88.6562C21.9544 89.8932 22.0521 90.9674 22.1172 91.8789C22.2474 92.7904 22.3776 93.6042 22.5078 94.3203C22.638 95.1016 22.8008 95.8503 22.9961 96.5664C21.694 97.543 20.457 98.2591 19.2852 98.7148C18.1133 99.1706 17.0716 99.4961 16.1602 99.6914C15.1185 99.9518 14.1419 100.017 13.2305 99.8867C12.9049 99.0404 12.612 98.0964 12.3516 97.0547C12.0911 96.0781 11.8958 94.776 11.7656 93.1484C11.7005 91.5208 11.668 89.4701 11.668 86.9961C11.668 84.457 11.7331 81.2344 11.8633 77.3281C11.3424 77.263 10.7891 77.2305 10.2031 77.2305C9.61719 77.1654 9.0638 77.0677 8.54297 76.9375C8.08724 75.8958 7.79427 74.9844 7.66406 74.2031C7.53385 73.4219 7.46875 72.7708 7.46875 72.25C7.46875 71.599 7.53385 71.0781 7.66406 70.6875C8.1849 70.7526 8.70573 70.8177 9.22656 70.8828C9.7474 70.8828 10.2357 70.8828 10.6914 70.8828C11.2122 70.9479 11.7005 70.9805 12.1562 70.9805C12.2865 67.9857 12.4167 64.8932 12.5469 61.7031C12.7422 58.4479 12.8724 55.2904 12.9375 52.2305C13.0677 49.1706 13.1654 46.2409 13.2305 43.4414C13.3607 40.5768 13.4583 38.0378 13.5234 35.8242C11.5703 37.1263 9.84505 38.819 8.34766 40.9023C6.91536 42.9857 5.97135 45.3945 5.51562 48.1289C4.66927 47.9987 3.95312 47.6081 3.36719 46.957C2.78125 46.2409 2.29297 45.5247 1.90234 44.8086C1.44661 43.9622 1.05599 43.0182 0.730469 41.9766C0.404948 40.7396 0.404948 39.5026 0.730469 38.2656C0.990885 36.9635 1.44661 35.7591 2.09766 34.6523C2.7487 33.4805 3.4974 32.4714 4.34375 31.625C5.1901 30.7135 6.00391 29.9974 6.78516 29.4766C8.21745 28.6302 9.64974 27.8815 11.082 27.2305C12.5143 26.5143 14.1419 25.9284 15.9648 25.4727C16.681 24.7565 17.4622 24.1055 18.3086 23.5195C19.2201 22.9336 20.099 22.5755 20.9453 22.4453C21.987 22.1849 22.5729 22.8685 22.7031 24.4961C23.2891 24.431 23.9076 24.3984 24.5586 24.3984C25.2096 24.3333 25.8932 24.3008 26.6094 24.3008ZM21.3359 69.7109C23.0938 69.1901 25.0143 68.4089 27.0977 67.3672C29.181 66.3255 31.1341 64.9583 32.957 63.2656C34.7799 61.5078 36.3099 59.3594 37.5469 56.8203C38.7839 54.2812 39.4023 51.2214 39.4023 47.6406C39.4023 44.9062 38.9141 42.5951 37.9375 40.707C37.026 38.7539 35.8216 37.1914 34.3242 36.0195C32.8268 34.7826 31.1667 33.9036 29.3438 33.3828C27.5859 32.7969 25.8281 32.5039 24.0703 32.5039C23.7448 32.5039 23.4193 32.5039 23.0938 32.5039C22.7682 32.5039 22.4427 32.5365 22.1172 32.6016C21.9219 34.6849 21.8242 36.931 21.8242 39.3398C21.8242 40.9674 21.7917 42.9531 21.7266 45.2969C21.6615 47.5755 21.5964 50.0495 21.5312 52.7188C21.4661 55.388 21.401 58.1875 21.3359 61.1172C21.3359 64.0469 21.3359 66.9115 21.3359 69.7109ZM77.9766 74.2031C77.8464 76.7422 77.3906 79.0859 76.6094 81.2344C75.8932 83.3828 74.8841 85.2708 73.582 86.8984C72.2799 88.4609 70.7174 89.6979 68.8945 90.6094C67.1367 91.5208 65.1836 92.0091 63.0352 92.0742C61.1471 92.1393 59.3568 91.6836 57.6641 90.707C56.0365 89.7305 54.6042 88.3633 53.3672 86.6055C52.1302 84.8477 51.1862 82.7643 50.5352 80.3555C49.9492 77.8815 49.7865 75.2122 50.0469 72.3477C50.2422 69.0273 50.8607 66.1953 51.9023 63.8516C52.944 61.4427 54.0508 59.457 55.2227 57.8945C56.3945 56.332 57.4688 55.1927 58.4453 54.4766C59.487 53.6953 60.138 53.2396 60.3984 53.1094C60.8542 52.9141 61.2773 52.8815 61.668 53.0117C62.0586 53.0768 62.4818 53.1745 62.9375 53.3047C63.0677 53.3698 63.1979 53.5326 63.3281 53.793C63.5885 54.2487 63.7513 55.0951 63.8164 56.332C64.1419 55.6159 64.5651 55.0299 65.0859 54.5742C65.6068 54.1185 66.1276 53.793 66.6484 53.5977C67.2995 53.3372 67.9505 53.1745 68.6016 53.1094C69.0573 53.0443 69.8385 53.4023 70.9453 54.1836C72.1172 54.9648 73.224 56.2018 74.2656 57.8945C75.3724 59.5872 76.3164 61.8008 77.0977 64.5352C77.8789 67.2044 78.1719 70.4271 77.9766 74.2031ZM71.3359 73.0312C71.401 71.4688 71.3359 69.9062 71.1406 68.3438C71.0104 66.7161 70.75 65.2513 70.3594 63.9492C70.0339 62.582 69.6107 61.5078 69.0898 60.7266C68.569 59.8802 68.0482 59.457 67.5273 59.457C66.9414 59.5872 66.2904 59.8802 65.5742 60.3359C64.9883 60.7266 64.3372 61.3451 63.6211 62.1914C62.9049 63.0378 62.2214 64.2422 61.5703 65.8047C61.5052 65.6094 61.4401 65.2513 61.375 64.7305C61.3099 64.2747 61.2448 63.6888 61.1797 62.9727C61.1797 62.1914 61.2448 61.1497 61.375 59.8477C60.4635 60.9544 59.7474 62.2565 59.2266 63.7539C58.7708 65.2513 58.4128 66.6836 58.1523 68.0508C57.8919 69.6784 57.6966 71.306 57.5664 72.9336C57.5013 74.6914 57.5664 76.4167 57.7617 78.1094C58.0221 79.8021 58.4128 81.2995 58.9336 82.6016C59.5195 83.9036 60.2031 84.9453 60.9844 85.7266C61.7656 86.5078 62.7096 86.8659 63.8164 86.8008C64.9232 86.7357 65.8997 86.2799 66.7461 85.4336C67.5924 84.5872 68.3411 83.513 68.9922 82.2109C69.6432 80.9089 70.1641 79.444 70.5547 77.8164C70.9453 76.1888 71.2057 74.5938 71.3359 73.0312ZM93.4062 88.3633C93.3411 88.7539 92.9831 89.1771 92.332 89.6328C91.7461 90.0234 91.0299 90.3815 90.1836 90.707C89.4023 91.0326 88.6536 91.2279 87.9375 91.293C87.2214 91.4232 86.7331 91.3581 86.4727 91.0977C86.2122 90.8372 85.7891 90.349 85.2031 89.6328C84.6172 88.9167 84.2591 87.7448 84.1289 86.1172C83.9987 84.4245 83.9336 82.3086 83.9336 79.7695C83.9336 77.1654 83.901 74.3008 83.8359 71.1758V67.2695C83.8359 66.0977 83.8034 64.7305 83.7383 63.168C83.7383 61.6055 83.7057 59.9779 83.6406 58.2852C84.2266 57.9596 84.8125 57.6667 85.3984 57.4062C86.0495 57.0807 86.6354 56.8203 87.1562 56.625C87.7422 56.3646 88.2956 56.1693 88.8164 56.0391C90.1836 55.6484 91.2253 55.4206 91.9414 55.3555C92.6576 55.2904 93.0807 55.5182 93.2109 56.0391C93.276 56.4297 93.2435 57.3737 93.1133 58.8711C92.9831 60.1732 92.8203 62.1589 92.625 64.8281C92.4297 67.4323 92.1042 71.0781 91.6484 75.7656C92.4948 73.6823 93.1784 71.8919 93.6992 70.3945C94.2852 68.8971 94.7734 67.6927 95.1641 66.7812C95.5547 65.6745 95.9128 64.7956 96.2383 64.1445C96.5638 63.2982 96.987 62.3542 97.5078 61.3125C98.0286 60.2708 98.5495 59.2943 99.0703 58.3828C99.6562 57.4714 100.177 56.6576 100.633 55.9414C101.154 55.2253 101.544 54.8021 101.805 54.6719C102 54.5417 102.586 54.5417 103.562 54.6719C104.539 54.8021 105.581 55.1276 106.688 55.6484C107.794 56.1042 108.868 56.7878 109.91 57.6992C110.952 58.5456 111.635 59.5872 111.961 60.8242C112.352 62.2565 112.482 64.1445 112.352 66.4883C112.286 68.832 112.124 71.2409 111.863 73.7148C111.668 76.1888 111.505 78.5326 111.375 80.7461C111.245 82.9596 111.375 84.6523 111.766 85.8242C111.896 86.4753 112.091 87.0612 112.352 87.582C112.482 88.1029 112.645 88.5911 112.84 89.0469C113.1 89.4375 113.361 89.7305 113.621 89.9258C112.059 90.6419 110.789 91.1628 109.812 91.4883C108.836 91.8138 108.087 92.0417 107.566 92.1719C106.915 92.3672 106.46 92.4323 106.199 92.3672C105.613 92.1719 105.092 91.6836 104.637 90.9023C104.246 90.1211 103.888 88.8841 103.562 87.1914C103.432 86.6706 103.367 85.8242 103.367 84.6523C103.432 83.4154 103.53 82.0482 103.66 80.5508C103.79 78.9883 103.921 77.3932 104.051 75.7656C104.246 74.0729 104.376 72.5104 104.441 71.0781C104.572 69.5807 104.669 68.3112 104.734 67.2695C104.799 66.1628 104.799 65.4141 104.734 65.0234C104.409 63.8516 103.953 63.0378 103.367 62.582C102.781 62.0612 102.326 61.9961 102 62.3867C101.154 63.3633 100.242 64.9583 99.2656 67.1719C98.3542 69.3203 97.4753 71.6966 96.6289 74.3008C95.7826 76.8398 95.0664 79.3789 94.4805 81.918C93.8945 84.457 93.5365 86.6055 93.4062 88.3633ZM130.027 91.8789C128.66 91.8789 127.26 91.5208 125.828 90.8047C124.396 90.0885 123.061 89.0143 121.824 87.582C120.587 86.0846 119.578 84.2617 118.797 82.1133C118.016 79.8997 117.625 77.3281 117.625 74.3984C117.625 70.1016 118.178 66.5534 119.285 63.7539C120.392 60.8893 121.727 58.6107 123.289 56.918C124.917 55.1602 126.674 53.9232 128.562 53.207C130.451 52.4909 132.176 52.1328 133.738 52.1328C135.366 52.1328 136.701 52.4258 137.742 53.0117C138.849 53.5326 139.76 54.151 140.477 54.8672V53.0117C140.867 52.6862 141.29 52.3932 141.746 52.1328C142.267 51.8724 142.788 51.6771 143.309 51.5469C143.829 51.3516 144.383 51.2539 144.969 51.2539H146.434C146.824 51.319 147.215 51.3841 147.605 51.4492C148.061 51.5143 148.387 51.6771 148.582 51.9375C148.191 60.4661 147.866 67.3672 147.605 72.6406C147.345 77.9141 147.15 82.0156 147.02 84.9453C146.824 88.3958 146.694 90.9023 146.629 92.4648C146.499 95.1992 146.141 97.901 145.555 100.57C144.969 103.305 144.057 105.746 142.82 107.895C141.583 110.043 139.956 111.768 137.938 113.07C135.919 114.372 133.445 115.023 130.516 115.023C127.977 115.023 125.926 114.535 124.363 113.559C122.866 112.582 121.694 111.378 120.848 109.945C120.066 108.513 119.546 106.983 119.285 105.355C119.025 103.793 118.895 102.361 118.895 101.059C118.895 100.733 119.057 100.245 119.383 99.5938C119.773 98.9427 120.294 98.2591 120.945 97.543C121.661 96.8919 122.54 96.306 123.582 95.7852C124.624 95.2643 125.796 94.9388 127.098 94.8086C126.512 96.5664 126.154 98.1615 126.023 99.5938C125.893 100.375 125.861 101.156 125.926 101.938C125.926 104.086 126.349 105.876 127.195 107.309C128.042 108.741 129.344 109.457 131.102 109.457C132.99 109.457 134.52 108.643 135.691 107.016C136.863 105.453 137.742 103.533 138.328 101.254C138.979 99.0404 139.402 96.6966 139.598 94.2227C139.858 91.8138 139.988 89.763 139.988 88.0703V85.2383C139.598 85.9544 139.109 86.7031 138.523 87.4844C138.003 88.2656 137.352 88.9818 136.57 89.6328C135.789 90.2839 134.845 90.8047 133.738 91.1953C132.697 91.651 131.46 91.8789 130.027 91.8789ZM134.031 57.6992C132.924 57.6992 131.85 58.1875 130.809 59.1641C129.832 60.1406 128.953 61.4427 128.172 63.0703C127.391 64.6328 126.772 66.4232 126.316 68.4414C125.861 70.4596 125.633 72.4779 125.633 74.4961C125.633 75.7982 125.698 77.1328 125.828 78.5C126.023 79.8672 126.349 81.1367 126.805 82.3086C127.326 83.4154 127.977 84.3268 128.758 85.043C129.539 85.7591 130.581 86.1172 131.883 86.1172C132.859 86.0521 133.771 85.6615 134.617 84.9453C135.333 84.3594 136.049 83.4154 136.766 82.1133C137.547 80.8112 138.165 78.9557 138.621 76.5469C139.142 77.0677 139.533 77.556 139.793 78.0117C140.118 78.4674 140.379 78.8906 140.574 79.2812C140.639 78.7604 140.672 78.1419 140.672 77.4258C140.737 76.7096 140.77 75.8958 140.77 74.9844C140.77 73.2266 140.672 71.3385 140.477 69.3203C140.281 67.237 139.923 65.349 139.402 63.6562C138.947 61.9635 138.263 60.5638 137.352 59.457C136.505 58.2852 135.398 57.6992 134.031 57.6992Z" fill="white"/>
<circle cx="169.036" cy="65.4471" r="25" transform="rotate(34.4001 169.036 65.4471)" fill="#FB0000" stroke="black"/>
<path d="M154.002 81.2096L161.164 86.1138L140.315 116.563L133.152 111.659L154.002 81.2096Z" fill="#868484"/>
<path d="M142.613 70L174.46 91.8061L170.847 97.0829L139 75.2767L142.613 70Z" fill="#868484"/>
<path d="M142 70.5L138.5 75.5L152.5 84.5L133.5 111.5L140 116L158.5 89L159 89.5L170 97H171.5L174 93.5V91.5L149.5 74.5L143.5 70.5H142Z" stroke="black"/>
</svg>
